<svg xmlns="http://www.w3.org/2000/svg" width="1280" height="800" viewBox="0 0 1280 800">
  <rect x="0" y="0" width="1280" height="800" fill="#f6f7fb"/>
  <rect x="0" y="0" width="1280" height="64" fill="#ffffff" stroke="#d9dce3"/>
  <text x="24" y="40" font-family="-apple-system,system-ui,Segoe UI" font-size="20" fill="#111">FV/2025/000123</text>

  <rect x="24" y="92" width="1232" height="220" rx="8" fill="#ffffff" stroke="#e3e6ee"/>
  <text x="40" y="122" font-family="-apple-system,system-ui,Segoe UI" font-size="18" fill="#111">Status KSeF</text>
  <rect x="40" y="136" width="1188" height="1" fill="#e3e6ee"/>
  <rect x="56" y="154" width="120" height="32" rx="16" fill="#10b981"/>
  <text x="76" y="176" font-family="-apple-system,system-ui,Segoe UI" font-size="14" fill="#fff">Przyjęto</text>
  <text x="190" y="175" font-family="-apple-system,system-ui,Segoe UI" font-size="16" fill="#111">Id KSeF: KSeF-123-ABC</text>
  <rect x="56" y="196" width="180" height="36" rx="8" fill="#4f46e5"/>
  <text x="76" y="220" font-family="-apple-system,system-ui,Segoe UI" font-size="14" fill="#fff">Wyślij ponownie</text>
  <a href="../prototype/invoicing.html">
    <rect x="246" y="196" width="200" height="36" rx="8" fill="#0ea5e9"/>
    <text x="266" y="220" font-family="-apple-system,system-ui,Segoe UI" font-size="14" fill="#fff">Faktura korygująca</text>
  </a>

  <rect x="24" y="332" width="776" height="364" rx="8" fill="#ffffff" stroke="#e3e6ee"/>
  <text x="40" y="360" font-family="-apple-system,system-ui,Segoe UI" font-size="18" fill="#111">Szczegóły</text>
  <rect x="40" y="374" width="744" height="1" fill="#e3e6ee"/>
  <text x="56" y="404" font-family="-apple-system,system-ui,Segoe UI" font-size="14" fill="#666">Kontrahent: ABC Sp. z o.o.</text>
  <text x="56" y="434" font-family="-apple-system,system-ui,Segoe UI" font-size="14" fill="#666">Kwoty: Netto 100 PLN • VAT 23 PLN • Brutto 123 PLN</text>
  <rect x="56" y="454" width="200" height="36" rx="8" fill="#10b981"/>
  <text x="76" y="478" font-family="-apple-system,system-ui,Segoe UI" font-size="14" fill="#fff">PDF podgląd</text>

  <rect x="820" y="332" width="436" height="164" rx="8" fill="#ffffff" stroke="#e3e6ee"/>
  <text x="836" y="360" font-family="-apple-system,system-ui,Segoe UI" font-size="18" fill="#111">Płatność</text>
  <rect x="836" y="374" width="404" height="1" fill="#e3e6ee"/>
  <rect x="836" y="392" width="120" height="32" rx="16" fill="#10b981"/>
  <text x="856" y="414" font-family="-apple-system,system-ui,Segoe UI" font-size="14" fill="#fff">Opłacone</text>
  <text x="966" y="414" font-family="-apple-system,system-ui,Segoe UI" font-size="14" fill="#666">Źródło: Bank AIS</text>
  <a href="../prototype/bank.html">
    <rect x="836" y="436" width="200" height="36" rx="8" fill="#0ea5e9"/>
    <text x="856" y="460" font-family="-apple-system,system-ui,Segoe UI" font-size="14" fill="#fff">Zobacz transakcję</text>
  </a>
</svg>
