<svg xmlns="http://www.w3.org/2000/svg" width="900" height="700" viewBox="0 0 900 700">
  <rect x="0" y="0" width="900" height="700" fill="#f6f7fb"/>
  <rect x="0" y="0" width="900" height="64" fill="#ffffff" stroke="#d9dce3"/>
  <text x="24" y="40" font-family="-apple-system,system-ui,Segoe UI" font-size="20" fill="#111">Powiadomienia</text>

  <rect x="24" y="92" width="852" height="520" rx="8" fill="#ffffff" stroke="#e3e6ee"/>
  <text x="40" y="122" font-family="-apple-system,system-ui,Segoe UI" font-size="18" fill="#111">Ustawienia</text>
  <rect x="40" y="136" width="818" height="1" fill="#e3e6ee"/>

  <text x="56" y="170" font-family="-apple-system,system-ui,Segoe UI" font-size="14" fill="#666">VAT</text>
  <rect x="100" y="152" width="44" height="24" rx="12" fill="#10b981"/>
  <text x="152" y="170" font-family="-apple-system,system-ui,Segoe UI" font-size="14" fill="#111">przypomnienia</text>

  <text x="56" y="210" font-family="-apple-system,system-ui,Segoe UI" font-size="14" fill="#666">ZUS</text>
  <rect x="100" y="192" width="44" height="24" rx="12" fill="#10b981"/>
  <text x="152" y="210" font-family="-apple-system,system-ui,Segoe UI" font-size="14" fill="#111">przypomnienia</text>

  <text x="56" y="250" font-family="-apple-system,system-ui,Segoe UI" font-size="14" fill="#666">Windykacja</text>
  <rect x="140" y="232" width="44" height="24" rx="12" fill="#e5e7eb"/>
  <text x="198" y="250" font-family="-apple-system,system-ui,Segoe UI" font-size="14" fill="#6b7280">sekwencja</text>

  <text x="56" y="310" font-family="-apple-system,system-ui,Segoe UI" font-size="14" fill="#666">Kanały</text>
  <rect x="120" y="292" width="90" height="36" rx="18" fill="#4f46e5"/>
  <text x="142" y="316" font-family="-apple-system,system-ui,Segoe UI" font-size="14" fill="#fff">E‑mail</text>
  <rect x="220" y="292" width="100" height="36" rx="18" fill="#6366f1"/>
  <text x="242" y="316" font-family="-apple-system,system-ui,Segoe UI" font-size="14" fill="#fff">In‑app</text>

  <a href="../prototype/index.html">
    <rect x="56" y="372" width="160" height="44" rx="8" fill="#10b981"/>
    <text x="76" y="400" font-family="-apple-system,system-ui,Segoe UI" font-size="16" fill="#fff">Zapisz</text>
  </a>
</svg>
